<svg xmlns="http://www.w3.org/2000/svg" viewBox="0 0 32 32"><g fill="none" fill-rule="evenodd"><path fill="#0674c8" d="M0 0h32v32H0z"/><path fill="#f2f2f2" d="M25.504 23.418c-1.444 0-2.167-.883-2.167-.883l.803-.802.027.03c.112.124.57.571 1.297.571.643 0 .923-.28.923-.642 0-.963-2.81-.522-2.81-2.488 0-.883.763-1.645 2.048-1.645 1.244 0 1.886.762 1.886.762l-.803.803-.03-.033c-.104-.11-.474-.449-1.013-.449-.602 0-.843.24-.843.562 0 .963 2.809.522 2.809 2.488 0 .924-.802 1.726-2.127 1.726zm-5.177-.12-1.14-3.652h-.048L18 23.298h-1.163l-1.846-5.619h1.243l1.164 3.773h.04l1.165-3.773h1.123l1.164 3.773h.04l1.164-3.773h1.244l-1.846 5.619zm-5.556 0h-4.254v-5.619h4.173v1.123h-2.97v1.084h2.328v1.084h-2.327v1.204h3.05zm-4.536-12.382L8.711 15.8H7.154l-2.47-7.516H6.35l1.557 5.047h.054l1.556-5.047h1.504l1.557 5.047h.053l1.557-5.047h1.664l-2.469 7.516h-1.557L10.3 10.916zm-.569 12.382H8.582l-2.73-3.492v3.492H4.65v-5.619h1.084L8.46 21.17V17.68h1.205zm7.528-8.84c.644 0 1.074-.428 1.074-1.18V8.285h1.61v4.993c0 1.611-1.074 2.684-2.63 2.684-1.557 0-2.202-.966-2.202-.966l1.074-1.073.03.034c.107.118.499.502 1.044.502zm4.08-.16 3.812-4.51h-3.65V8.285h5.69v1.503l-3.812 4.51h3.92V15.8h-5.96z"/></g></svg>